<svg width="384" height="1024" viewBox="0 0 384 1024" fill="none" xmlns="http://www.w3.org/2000/svg">
<g clip-path="url(#clip0_3716_987)">
<rect width="384" height="1024" fill="#00684A"/>
<path d="M176.045 971.822C178.724 971.822 180.895 969.651 180.895 966.973C180.895 964.294 178.724 962.123 176.045 962.123C173.367 962.123 171.196 964.294 171.196 966.973C171.196 969.651 173.367 971.822 176.045 971.822Z" fill="#B45AF2" stroke="black" stroke-linecap="round" stroke-linejoin="round"/>
<path d="M191.129 984.848C193.271 984.848 195.007 983.111 195.007 980.97C195.007 978.828 193.271 977.092 191.129 977.092C188.987 977.092 187.251 978.828 187.251 980.97C187.251 983.111 188.987 984.848 191.129 984.848Z" fill="#B1FF05" stroke="black" stroke-linecap="round" stroke-linejoin="round"/>
<path d="M275.522 420.066C278.2 420.066 280.371 417.895 280.371 415.217C280.371 412.539 278.2 410.367 275.522 410.367C272.844 410.367 270.672 412.539 270.672 415.217C270.672 417.895 272.844 420.066 275.522 420.066Z" fill="#B45AF2" stroke="black" stroke-linecap="round" stroke-linejoin="round"/>
<path d="M441.582 616.492C446.613 664.665 420.299 708.887 379.098 728.862" stroke="white" stroke-linecap="round" stroke-linejoin="round"/>
<path d="M319.727 676.464H390.872V632.226H319.727V676.464Z" fill="#B1FF05" stroke="black" stroke-linecap="round" stroke-linejoin="round"/>
<path d="M331.007 612.869L395.17 638.854L392.297 641.76L375.476 647.795L390.872 663.834V676.464H384.294L365.933 657.346L356.992 677.032L354.118 679.938L328.134 615.775L331.007 612.869Z" fill="black" stroke="black" stroke-linecap="round" stroke-linejoin="round"/>
<path d="M392.297 641.76L372.603 650.701L390.872 669.597V676.464H378.745L363.06 660.252L354.118 679.938L328.134 615.775L392.297 641.76Z" fill="#00ED64" stroke="black" stroke-linecap="round" stroke-linejoin="round"/>
<path d="M91.2573 471.525H-13.4886V576.271H91.2573V471.525Z" fill="#B1FF05" stroke="black" stroke-linecap="round" stroke-linejoin="round"/>
<path d="M69.4553 499.939C64.8857 501.158 60.1926 498.441 58.974 493.871C58.3318 491.467 58.7847 489.022 60.0197 487.07C55.4831 489.236 52.9801 494.39 54.3304 499.429C55.8454 505.118 61.6911 508.494 67.3722 506.979C72.7157 505.554 76.0173 500.318 75.1445 494.974C74.1565 497.337 72.1229 499.223 69.4553 499.939Z" fill="#00ED64" stroke="black" stroke-linecap="round" stroke-linejoin="round"/>
<path d="M81.8465 512.726L67.8909 553.498L53.3753 511.112L38.8597 553.498L24.3524 511.112L9.83685 553.498L-4.09412 512.816L-13.4885 576.271H91.2574L81.8465 512.726Z" fill="#00ED64" stroke="black" stroke-linecap="round" stroke-linejoin="round"/>
<path d="M19.9146 471.526C19.3877 475.749 15.7896 479.018 11.4259 479.018C8.66772 479.018 6.21416 477.717 4.64981 475.692C5.18498 481.076 9.72985 485.292 15.2545 485.292C21.1414 485.292 25.9168 480.517 25.9168 474.63C25.9168 473.551 25.7439 472.505 25.4475 471.526H19.9228H19.9146Z" fill="#00ED64" stroke="black" stroke-linecap="round" stroke-linejoin="round"/>
<path d="M304.149 746.876H199.404V851.622H304.149V746.876Z" fill="#5400F8" stroke="black" stroke-linecap="round" stroke-linejoin="round"/>
<path d="M304.149 799.249H199.404L251.777 746.876L304.149 799.249Z" fill="#F2C5EE" stroke="black" stroke-linecap="round" stroke-linejoin="round"/>
<path d="M199.404 799.249V851.622H223.725C223.725 836.127 236.29 823.571 251.777 823.571C267.264 823.571 279.828 836.135 279.828 851.622H304.15V799.249H199.404Z" fill="#B45AF2" stroke="black" stroke-linecap="round" stroke-linejoin="round"/>
<path d="M251.777 790.349C256.551 790.349 260.422 786.478 260.422 781.704C260.422 776.929 256.551 773.059 251.777 773.059C247.002 773.059 243.132 776.929 243.132 781.704C243.132 786.478 247.002 790.349 251.777 790.349Z" fill="#00ED64" stroke="black" stroke-linecap="round" stroke-linejoin="round"/>
<path d="M251.777 773.059V790.349" stroke="black" stroke-linecap="round" stroke-linejoin="round"/>
<path d="M260.422 781.704H243.132" stroke="black" stroke-linecap="round" stroke-linejoin="round"/>
<path d="M28.8972 708.278H-75.8487V813.024H28.8972V708.278Z" fill="#00D2FF" stroke="black" stroke-linecap="round" stroke-linejoin="round"/>
<path d="M28.8972 813.024H21.6518C1.67748 804.041 -12.2288 783.968 -12.2288 760.651C-12.2288 737.334 1.67748 717.261 21.6518 708.278H28.8972V813.024Z" fill="#A6FFEC" stroke="black" stroke-linecap="round" stroke-linejoin="round"/>
<path d="M15.0074 762.446C15.0074 762.446 -2.22517 781.786 -23.4757 781.786C-44.7262 781.786 -61.9588 762.446 -61.9588 762.446C-61.9588 762.446 -44.7262 743.106 -23.4757 743.106C-2.22517 743.106 15.0074 762.446 15.0074 762.446Z" fill="white" stroke="black" stroke-linecap="round" stroke-linejoin="round"/>
<path d="M167.244 394.493H62.4979V499.239H167.244V394.493Z" fill="#B45AF2" stroke="black" stroke-linecap="round" stroke-linejoin="round"/>
<path d="M167.244 468.001C167.244 468.001 129.691 460.278 114.871 499.247V426.365C129.691 387.404 167.244 395.119 167.244 395.119V468.001Z" fill="#F0DCEC" stroke="black" stroke-linecap="round" stroke-linejoin="round"/>
<path d="M62.4979 468.002C62.4979 468.002 100.051 460.279 114.871 499.248V426.365C100.051 387.405 62.4979 395.119 62.4979 395.119V468.002Z" fill="#F0DCEC" stroke="black" stroke-linecap="round" stroke-linejoin="round"/>
<path d="M123.952 466.668C123.952 466.668 139.019 447.928 159.364 448.908" stroke="black" stroke-linecap="round" stroke-linejoin="round"/>
<path d="M106.39 466.668C106.39 466.668 91.3233 447.928 70.9785 448.908" stroke="black" stroke-linecap="round" stroke-linejoin="round"/>
<path d="M123.952 447.089C123.952 447.089 139.019 428.349 159.364 429.329" stroke="black" stroke-linecap="round" stroke-linejoin="round"/>
<path d="M106.39 447.089C106.39 447.089 91.3233 428.349 70.9785 429.329" stroke="black" stroke-linecap="round" stroke-linejoin="round"/>
<path d="M123.952 427.509C123.952 427.509 139.019 408.77 159.364 409.75" stroke="black" stroke-linecap="round" stroke-linejoin="round"/>
<path d="M106.39 427.51C106.39 427.51 100.784 420.536 91.7926 415.324" stroke="black" stroke-linecap="round" stroke-linejoin="round"/>
<path d="M70.9785 405.493V421.458C70.9785 421.458 79.7059 421.409 84.8189 423.615V408.26C84.8189 408.26 81.8795 404.884 70.9785 405.493Z" fill="#00ED64" stroke="black" stroke-linecap="round" stroke-linejoin="round"/>
<path d="M466.809 871.029H362.063V975.774H466.809V871.029Z" fill="#FFC010" stroke="black" stroke-linecap="round" stroke-linejoin="round"/>
<path d="M453.282 893.152L381.626 871.029H362.063L433.711 893.152H453.282Z" fill="#FEE200" stroke="black" stroke-linecap="round" stroke-linejoin="round"/>
<path d="M362.063 871.029L433.711 893.152L416.264 927.889L362.063 913.003V871.029Z" fill="#FEE200" stroke="black" stroke-linecap="round" stroke-linejoin="round"/>
<path d="M362.064 913.003L416.264 927.889H430.385L415.803 962.634L362.064 947.929V913.003Z" fill="#FEE200" stroke="black" stroke-linecap="round" stroke-linejoin="round"/>
<path d="M199.403 669.112H94.5012V746.877H199.403V669.112Z" fill="#B1FF05" stroke="black" stroke-linecap="round" stroke-linejoin="round"/>
<path d="M191.129 677.131H102.776V738.849H191.129V677.131Z" fill="#023430" stroke="black" stroke-linecap="round" stroke-linejoin="round"/>
<path d="M114.607 692.313V700.242L132.507 707.99L114.607 715.737V723.666L145.129 710.756V705.231L114.607 692.313Z" fill="#B1FF05" stroke="black" stroke-linecap="round" stroke-linejoin="round"/>
<path d="M179.298 716.281H150.135V723.666H179.298V716.281Z" fill="#B1FF05" stroke="black" stroke-linecap="round" stroke-linejoin="round"/>
<path d="M137.241 831.179H199.404" stroke="white" stroke-linecap="round" stroke-linejoin="round"/>
<path d="M304.528 782H338.335V907.503H362.064" stroke="white" stroke-linecap="round" stroke-linejoin="round"/>
<path d="M338.335 792.811C344.305 792.811 349.145 787.971 349.145 782C349.145 776.03 344.305 771.19 338.335 771.19C332.364 771.19 327.524 776.03 327.524 782C327.524 787.971 332.364 792.811 338.335 792.811Z" fill="#E3FCF7" stroke="black" stroke-linecap="round" stroke-linejoin="round"/>
<path d="M134.993 669.112V577.235C134.977 566.795 134.993 545.725 145.153 532.609C152.251 523.586 164.148 521.371 172.785 528.707C198.185 550.254 200.013 632.489 176.646 632.489C149.756 632.489 148.76 523.594 198.86 523.594C248.961 523.594 250.418 632.489 224.367 632.489C196.588 632.489 197.905 523.594 248.812 523.594C299.72 523.594 298.254 632.144 272.624 632.489C248.73 632.81 248.426 545.61 280.635 527.068C289.955 521.7 300.486 525.117 306.027 533.087C312.696 542.662 314.598 556.042 317.076 566.778C319.908 579.063 328.718 584.669 339.405 584.777H376.365" stroke="white" stroke-linecap="round" stroke-linejoin="round"/>
<path d="M481.103 541.658H376.357V646.404H481.103V541.658Z" fill="#006CFA" stroke="black" stroke-linecap="round" stroke-linejoin="round"/>
<path d="M428.73 646.404C457.654 646.404 481.103 622.956 481.103 594.031C481.103 565.106 457.654 541.658 428.73 541.658C399.805 541.658 376.357 565.106 376.357 594.031C376.357 622.956 399.805 646.404 428.73 646.404Z" fill="#00D2FF" stroke="black" stroke-linecap="round" stroke-linejoin="round"/>
<path d="M13.0231 813.024V830.602H-118.185C-124.714 830.602 -130 835.896 -130 842.417C-130 848.946 -124.706 854.232 -118.185 854.232H3.30767C8.67587 854.232 13.0231 858.58 13.0231 863.948C13.0231 869.316 8.67587 873.663 3.30767 873.663H-117.814C-124.344 873.663 -129.629 878.957 -129.629 885.478C-129.629 892.007 -124.335 897.293 -117.814 897.293H13.3936V927.996" stroke="white" stroke-linecap="round" stroke-linejoin="round"/>
<path d="M13.1631 837.197C16.9054 837.197 19.9392 834.164 19.9392 830.421C19.9392 826.679 16.9054 823.645 13.1631 823.645C9.42074 823.645 6.38693 826.679 6.38693 830.421C6.38693 834.164 9.42074 837.197 13.1631 837.197Z" fill="#E9FF99" stroke="white" stroke-linecap="round" stroke-linejoin="round"/>
<path d="M13.1631 904.119C16.9054 904.119 19.9392 901.085 19.9392 897.343C19.9392 893.6 16.9054 890.567 13.1631 890.567C9.42074 890.567 6.38693 893.6 6.38693 897.343C6.38693 901.085 9.42074 904.119 13.1631 904.119Z" fill="#E9FF99" stroke="white" stroke-linecap="round" stroke-linejoin="round"/>
<path d="M212.289 630.365C216.054 630.365 219.106 627.313 219.106 623.548C219.106 619.783 216.054 616.73 212.289 616.73C208.524 616.73 205.472 619.783 205.472 623.548C205.472 627.313 208.524 630.365 212.289 630.365Z" fill="#B1FF05" stroke="black" stroke-linecap="round" stroke-linejoin="round"/>
<path d="M330.686 774.352L345.975 789.649" stroke="black" stroke-linecap="round" stroke-linejoin="round"/>
<path d="M345.975 774.352L330.686 789.649" stroke="black" stroke-linecap="round" stroke-linejoin="round"/>
<path d="M136.36 817.413C131.939 817.413 128.003 819.496 125.484 822.74C122.964 819.496 119.029 817.413 114.607 817.413C110.186 817.413 106.102 819.578 103.591 822.921C101.08 819.578 97.0784 817.413 92.5747 817.413C87.8157 817.413 83.6167 819.833 81.1466 823.505C78.6766 819.833 74.4776 817.413 69.7187 817.413C62.111 817.413 55.9523 823.579 55.9523 831.179C55.9523 838.778 62.1192 844.945 69.7187 844.945C74.4776 844.945 78.6766 842.525 81.1466 838.852C83.6167 842.525 87.8157 844.945 92.5747 844.945C97.0784 844.945 101.08 842.78 103.591 839.437C106.102 842.78 110.104 844.945 114.607 844.945C119.111 844.945 122.964 842.862 125.484 839.618C128.003 842.862 131.939 844.945 136.36 844.945C143.968 844.945 150.126 838.778 150.126 831.179C150.126 823.579 143.96 817.413 136.36 817.413Z" fill="#FEE200" stroke="black" stroke-linecap="round" stroke-linejoin="round"/>
<path d="M137.241 835.057C139.383 835.057 141.119 833.32 141.119 831.179C141.119 829.037 139.383 827.301 137.241 827.301C135.099 827.301 133.363 829.037 133.363 831.179C133.363 833.32 135.099 835.057 137.241 835.057Z" fill="#B1FF05" stroke="black" stroke-linecap="round" stroke-linejoin="round"/>
<path d="M114.83 835.057C116.971 835.057 118.707 833.32 118.707 831.179C118.707 829.037 116.971 827.301 114.83 827.301C112.688 827.301 110.952 829.037 110.952 831.179C110.952 833.32 112.688 835.057 114.83 835.057Z" fill="#B1FF05" stroke="black" stroke-linecap="round" stroke-linejoin="round"/>
<path d="M92.4099 835.057C94.5516 835.057 96.2878 833.32 96.2878 831.179C96.2878 829.037 94.5516 827.301 92.4099 827.301C90.2682 827.301 88.5319 829.037 88.5319 831.179C88.5319 833.32 90.2682 835.057 92.4099 835.057Z" fill="#B1FF05" stroke="black" stroke-linecap="round" stroke-linejoin="round"/>
<path d="M69.9986 835.057C72.1403 835.057 73.8765 833.32 73.8765 831.179C73.8765 829.037 72.1403 827.301 69.9986 827.301C67.8568 827.301 66.1206 829.037 66.1206 831.179C66.1206 833.32 67.8568 835.057 69.9986 835.057Z" fill="#B1FF05" stroke="black" stroke-linecap="round" stroke-linejoin="round"/>
<path d="M331.748 401.624L323.737 403.756C320.905 404.513 318.69 406.72 317.94 409.552L315.808 417.555L313.667 409.511C313.494 408.861 313.247 408.251 312.926 407.683C312.054 406.094 310.662 404.835 308.974 404.126C308.628 403.978 308.274 403.855 307.912 403.764L299.868 401.624L307.896 399.483C310.053 398.906 311.856 397.474 312.918 395.572C313.239 394.987 313.494 394.37 313.675 393.703L315.816 385.675L317.973 393.777C318.369 395.267 319.175 396.576 320.27 397.589C321.217 398.462 322.37 399.112 323.654 399.458L331.764 401.624H331.748Z" fill="white" stroke="black" stroke-linecap="round" stroke-linejoin="round"/>
<path d="M122.264 961.251H112.409V971.106H122.264V961.251Z" fill="white" stroke="black" stroke-linecap="round" stroke-linejoin="round"/>
<path d="M102.553 951.395H92.6981V961.251H102.553V951.395Z" fill="white" stroke="black" stroke-linecap="round" stroke-linejoin="round"/>
<path d="M112.409 951.395H102.553V961.251H112.409V951.395Z" fill="white" stroke="black" stroke-linecap="round" stroke-linejoin="round"/>
<path d="M141.984 980.97H132.128V990.825H141.984V980.97Z" fill="white" stroke="black" stroke-linecap="round" stroke-linejoin="round"/>
<path d="M122.264 971.114H112.409V980.97H122.264V971.114Z" fill="#023430" stroke="black" stroke-linecap="round" stroke-linejoin="round"/>
<path d="M132.12 931.676H122.264V941.531H132.12V931.676Z" fill="white" stroke="black" stroke-linecap="round" stroke-linejoin="round"/>
<path d="M122.264 931.676H112.409V941.531H122.264V931.676Z" fill="#023430" stroke="black" stroke-linecap="round" stroke-linejoin="round"/>
<path d="M132.12 971.114H122.264V980.97H132.12V971.114Z" fill="#023430" stroke="black" stroke-linecap="round" stroke-linejoin="round"/>
<path d="M112.409 941.54H102.553V951.395H112.409V941.54Z" fill="#023430" stroke="black" stroke-linecap="round" stroke-linejoin="round"/>
<path d="M92.6898 971.114H82.8344V980.97H92.6898V971.114Z" fill="white" stroke="black" stroke-linecap="round" stroke-linejoin="round"/>
<path d="M92.6898 961.251H82.8344V971.106H92.6898V961.251Z" fill="#023430" stroke="black" stroke-linecap="round" stroke-linejoin="round"/>
<path d="M36.859 928.012H-9.98929V974.86H36.859V928.012Z" fill="#FF9F10" stroke="black" stroke-linecap="round" stroke-linejoin="round"/>
<path d="M13.4348 966.973C22.0154 966.973 28.9713 960.017 28.9713 951.436C28.9713 942.856 22.0154 935.9 13.4348 935.9C4.85423 935.9 -2.1017 942.856 -2.1017 951.436C-2.1017 960.017 4.85423 966.973 13.4348 966.973Z" fill="#FFE212" stroke="black" stroke-linecap="round" stroke-linejoin="round"/>
<path d="M7.50669 951.502C8.56164 951.502 9.41685 950.647 9.41685 949.592C9.41685 948.537 8.56164 947.682 7.50669 947.682C6.45174 947.682 5.59657 948.537 5.59657 949.592C5.59657 950.647 6.45174 951.502 7.50669 951.502Z" fill="#010101" stroke="black" stroke-linecap="round" stroke-linejoin="round"/>
<path d="M19.3548 951.502C20.4097 951.502 21.2649 950.647 21.2649 949.592C21.2649 948.537 20.4097 947.682 19.3548 947.682C18.2998 947.682 17.4446 948.537 17.4446 949.592C17.4446 950.647 18.2998 951.502 19.3548 951.502Z" fill="#010101" stroke="black" stroke-linecap="round" stroke-linejoin="round"/>
<path d="M16.7859 955.693C16.7859 957.546 15.2791 959.052 13.4266 959.052C11.5741 959.052 10.0674 957.546 10.0674 955.693" stroke="black" stroke-linecap="round" stroke-linejoin="round"/>
<path d="M-20.0834 641.414V693.351L0.854248 667.383L-20.0834 641.414Z" fill="#F2C5EE" stroke="black" stroke-linecap="round" stroke-linejoin="round"/>
<path d="M0.854156 641.414V693.351L21.8 667.383L0.854156 641.414Z" fill="#F0DCEC" stroke="black" stroke-linecap="round" stroke-linejoin="round"/>
<path d="M444.052 823.184H401.502C388.288 823.184 377.575 833.895 377.575 847.106C377.575 860.318 388.288 871.029 401.502 871.029H444.052C457.266 871.029 467.979 860.318 467.979 847.106C467.979 833.895 457.266 823.184 444.052 823.184Z" fill="#E3FCF7" stroke="black" stroke-miterlimit="10"/>
<path d="M445.781 832.776C445.575 830.248 444.48 827.07 442.488 823.242L441.516 821.381L437.07 812.835L428.466 817.305L432.912 825.852C434.427 828.766 435.135 830.767 435.045 831.846C434.954 832.924 434.46 833.83 433.571 834.571L432.146 835.403L423.419 840.524C420.134 842.442 417.853 844.352 416.561 846.246C415.268 848.148 414.535 850.494 414.346 853.286C411.95 851.828 409.603 851.087 407.314 851.046C405.017 851.013 402.144 851.779 398.686 853.368L387.982 858.25C386.871 858.555 385.841 858.44 384.903 857.888C383.964 857.345 382.746 855.616 381.231 852.701L377.6 845.711C377.575 846.172 377.559 846.641 377.559 847.111C377.559 856.447 382.902 864.524 390.699 868.468C392.387 867.867 394.314 867.019 396.463 865.899C401.337 863.363 404.54 861.914 406.079 861.544C407.619 861.173 409.2 861.165 410.83 861.536C412.46 861.906 414.016 863.388 415.49 865.99L419.788 863.759L424.086 861.527C422.801 858.827 422.48 856.702 423.123 855.155C423.765 853.607 424.67 852.314 425.864 851.277C427.05 850.231 430.08 848.444 434.954 845.917C437.177 844.764 439.038 843.644 440.52 842.574C441.985 841.52 443.089 840.499 443.83 839.527C445.328 837.568 445.97 835.32 445.765 832.784L445.781 832.776Z" fill="#00D2FF" stroke="black" stroke-miterlimit="10"/>
<path d="M402.885 842.5C400.588 842.467 397.714 843.233 394.256 844.822L383.553 849.704C382.441 850.009 381.412 849.894 380.473 849.342C379.716 848.897 378.761 847.67 377.616 845.653C377.583 846.139 377.567 846.625 377.567 847.119C377.567 852.265 379.189 857.032 381.955 860.935C384.401 860.77 387.76 859.576 392.033 857.361C396.907 854.825 400.11 853.376 401.65 853.006C403.189 852.635 404.77 852.627 406.4 852.998C408.031 853.368 409.587 854.85 411.061 857.452L415.358 855.221L409.924 844.756C407.528 843.299 405.182 842.558 402.893 842.516L402.885 842.5Z" fill="#A6FFEC" stroke="black" stroke-miterlimit="10"/>
<path d="M315.808 563.518C318.564 563.518 320.797 561.284 320.797 558.528C320.797 555.772 318.564 553.539 315.808 553.539C313.052 553.539 310.818 555.772 310.818 558.528C310.818 561.284 313.052 563.518 315.808 563.518Z" fill="white" stroke="black" stroke-linecap="round" stroke-linejoin="round"/>
<path d="M134.993 620.197C137.749 620.197 139.983 617.963 139.983 615.207C139.983 612.452 137.749 610.218 134.993 610.218C132.238 610.218 130.004 612.452 130.004 615.207C130.004 617.963 132.238 620.197 134.993 620.197Z" fill="white" stroke="black" stroke-linecap="round" stroke-linejoin="round"/>
<path d="M134.993 630.168C137.749 630.168 139.983 627.934 139.983 625.178C139.983 622.422 137.749 620.189 134.993 620.189C132.238 620.189 130.004 622.422 130.004 625.178C130.004 627.934 132.238 630.168 134.993 630.168Z" fill="white" stroke="black" stroke-linecap="round" stroke-linejoin="round"/>
<path d="M134.993 640.146C137.749 640.146 139.983 637.913 139.983 635.157C139.983 632.401 137.749 630.167 134.993 630.167C132.238 630.167 130.004 632.401 130.004 635.157C130.004 637.913 132.238 640.146 134.993 640.146Z" fill="white" stroke="black" stroke-linecap="round" stroke-linejoin="round"/>
<path d="M451.866 419.359H373.887C364.901 419.359 357.617 426.643 357.617 435.628V435.636C357.617 444.621 364.901 451.905 373.887 451.905H451.866C460.851 451.905 468.135 444.621 468.135 435.636V435.628C468.135 426.643 460.851 419.359 451.866 419.359Z" fill="white" stroke="black" stroke-miterlimit="10"/>
<path d="M373.706 430.819V426.612L394.421 433.594V437.669L373.706 444.651V440.444L388.485 435.636L373.706 430.819Z" fill="#00ED64" stroke="black" stroke-miterlimit="10"/>
<path d="M396.611 445.079H305.261C296.276 445.079 288.992 452.363 288.992 461.349V461.357C288.992 470.342 296.276 477.626 305.261 477.626H396.611C405.596 477.626 412.88 470.342 412.88 461.357V461.349C412.88 452.363 405.596 445.079 396.611 445.079Z" fill="#B1FF05" stroke="black" stroke-miterlimit="10"/>
<path d="M311.749 469.673V470.628C311.749 473.139 312.334 475.518 313.379 477.626H397.08C405.8 477.626 412.872 470.554 412.872 461.834V460.879C412.872 458.368 412.288 455.989 411.242 453.881H327.541C318.822 453.881 311.749 460.954 311.749 469.673Z" fill="#231F20" stroke="black" stroke-miterlimit="10"/>
<path d="M439.005 460.558H340.426C331.441 460.558 324.157 467.842 324.157 476.828V476.836C324.157 485.821 331.441 493.105 340.426 493.105H439.005C447.99 493.105 455.274 485.821 455.274 476.836V476.828C455.274 467.842 447.99 460.558 439.005 460.558Z" fill="white" stroke="black" stroke-miterlimit="10"/>
<path d="M410.171 475.008H369.852C368.97 475.008 368.255 475.723 368.255 476.605V477.058C368.255 477.94 368.97 478.656 369.852 478.656H410.171C411.054 478.656 411.769 477.94 411.769 477.058V476.605C411.769 475.723 411.054 475.008 410.171 475.008Z" fill="#231F20" stroke="black" stroke-miterlimit="10"/>
<path d="M340.245 472.019V467.812L360.96 474.794V478.87L340.245 485.852V481.644L355.024 476.828L340.245 472.019Z" fill="#00ED64" stroke="black" stroke-miterlimit="10"/>
<path d="M338.335 912.492C341.09 912.492 343.324 910.258 343.324 907.503C343.324 904.747 341.09 902.513 338.335 902.513C335.579 902.513 333.345 904.747 333.345 907.503C333.345 910.258 335.579 912.492 338.335 912.492Z" fill="white" stroke="black" stroke-linecap="round" stroke-linejoin="round"/>
<path d="M264.258 466.034C266.937 466.034 269.108 463.862 269.108 461.184C269.108 458.506 266.937 456.335 264.258 456.335C261.58 456.335 259.409 458.506 259.409 461.184C259.409 463.862 261.58 466.034 264.258 466.034Z" fill="#B45AF2" stroke="white" stroke-linecap="round" stroke-linejoin="round"/>
<path d="M288.992 461.184H211.523V429.288H167.244" stroke="white" stroke-linecap="round" stroke-linejoin="round"/>
<path d="M264.258 466.034C266.937 466.034 269.108 463.862 269.108 461.184C269.108 458.506 266.937 456.335 264.258 456.335C261.58 456.335 259.409 458.506 259.409 461.184C259.409 463.862 261.58 466.034 264.258 466.034Z" fill="#B1FF05" stroke="white" stroke-linecap="round" stroke-linejoin="round"/>
<path d="M254.551 466.034C257.229 466.034 259.401 463.862 259.401 461.184C259.401 458.506 257.229 456.335 254.551 456.335C251.873 456.335 249.702 458.506 249.702 461.184C249.702 463.862 251.873 466.034 254.551 466.034Z" fill="#E9FF99" stroke="white" stroke-linecap="round" stroke-linejoin="round"/>
<path d="M220.638 429.288L211.521 420.171L202.404 429.288L211.521 438.405L220.638 429.288Z" fill="#E9FF99" stroke="black" stroke-linecap="round" stroke-linejoin="round"/>
<path d="M199.404 708.402C220.654 708.402 237.879 725.626 237.879 746.876" stroke="white" stroke-linecap="round" stroke-linejoin="round"/>
<path d="M199.404 785.351C178.153 785.351 160.929 768.127 160.929 746.876" stroke="white" stroke-linecap="round" stroke-linejoin="round"/>
<path d="M199.404 681.742C235.376 681.742 264.538 710.905 264.538 746.877" stroke="white" stroke-linecap="round" stroke-linejoin="round"/>
<path d="M199.404 812.003C163.432 812.003 134.269 782.84 134.269 746.868" stroke="white" stroke-linecap="round" stroke-linejoin="round"/>
<path d="M252.765 702.572C252.435 702.572 252.106 702.597 251.793 702.655C251.884 702.243 251.925 701.823 251.925 701.387C251.925 698.036 249.208 695.319 245.857 695.319C242.506 695.319 239.789 698.036 239.789 701.387C239.789 704.738 242.506 707.455 245.857 707.455C246.186 707.455 246.515 707.43 246.828 707.372C246.738 707.784 246.697 708.204 246.697 708.64C246.697 711.991 249.414 714.708 252.765 714.708C256.116 714.708 258.833 711.991 258.833 708.64C258.833 705.289 256.116 702.572 252.765 702.572Z" fill="white" stroke="black" stroke-linecap="round" stroke-linejoin="round"/>
<path d="M252.83 710.888C254.063 710.888 255.062 709.889 255.062 708.657C255.062 707.424 254.063 706.426 252.83 706.426C251.598 706.426 250.599 707.424 250.599 708.657C250.599 709.889 251.598 710.888 252.83 710.888Z" fill="#B1FF05" stroke="black" stroke-linecap="round" stroke-linejoin="round"/>
<path d="M245.766 703.478C246.998 703.478 247.997 702.479 247.997 701.247C247.997 700.014 246.998 699.015 245.766 699.015C244.534 699.015 243.535 700.014 243.535 701.247C243.535 702.479 244.534 703.478 245.766 703.478Z" fill="#B1FF05" stroke="black" stroke-linecap="round" stroke-linejoin="round"/>
<path d="M163.432 870.411H267.758C277.259 870.411 284.974 878.126 284.974 887.627C284.974 897.129 277.259 904.843 267.758 904.843H163.432C160.707 904.843 158.5 902.629 158.5 899.912V875.351C158.5 872.626 160.715 870.419 163.432 870.419V870.411Z" fill="#E3FCF7" stroke="black" stroke-miterlimit="10"/>
<path d="M163.432 870.411H248.039C257.54 870.411 265.255 878.126 265.255 887.627C265.255 897.129 257.54 904.843 248.039 904.843H163.432C160.707 904.843 158.5 902.629 158.5 899.912V875.351C158.5 872.626 160.715 870.419 163.432 870.419V870.411Z" fill="#A6FFEC" stroke="black" stroke-miterlimit="10"/>
<path d="M163.432 870.411H225.142C234.643 870.411 242.358 878.126 242.358 887.627C242.358 897.129 234.643 904.843 225.142 904.843H163.432C160.707 904.843 158.5 902.629 158.5 899.912V875.351C158.5 872.626 160.715 870.419 163.432 870.419V870.411Z" fill="#00D2FF" stroke="black" stroke-miterlimit="10"/>
<path d="M158.5 905.502C168.19 905.502 176.045 897.646 176.045 887.956C176.045 878.266 168.19 870.411 158.5 870.411C148.81 870.411 140.954 878.266 140.954 887.956C140.954 897.646 148.81 905.502 158.5 905.502Z" fill="#006CFA" stroke="black" stroke-miterlimit="10"/>
<path d="M169.146 881.394L166.322 878.57L155.264 889.619L150.678 885.025L147.846 887.849L153.56 893.555L153.568 893.547L155.281 895.259L169.146 881.394Z" fill="white" stroke="black" stroke-miterlimit="10"/>
<path d="M-13.4886 576.271L94.5013 669.112L91.2573 576.271" stroke="white" stroke-linecap="round" stroke-linejoin="round"/>
<path d="M92.5831 844.945V951.502H36.8591" stroke="white" stroke-linecap="round" stroke-linejoin="round"/>
<path d="M205.472 905.502V941.54H362.063" stroke="white" stroke-linecap="round" stroke-linejoin="round"/>
<path d="M333.395 936.608H280.454C277.73 936.608 275.522 938.814 275.522 941.536C275.522 944.257 277.73 946.463 280.454 946.463H333.395C336.118 946.463 338.326 944.257 338.326 941.536C338.326 938.814 336.118 936.608 333.395 936.608Z" fill="#F2C5EE" stroke="black" stroke-linecap="round" stroke-linejoin="round"/>
</g>
<defs>
<clipPath id="clip0_3716_987">
<rect width="384" height="1024" fill="white"/>
</clipPath>
</defs>
</svg>